<?xml version="1.0" encoding="utf-8"?>
<!-- Generator: Adobe Illustrator 16.0.0, SVG Export Plug-In . SVG Version: 6.00 Build 0)  -->
<!DOCTYPE svg PUBLIC "-//W3C//DTD SVG 1.1//EN" "http://www.w3.org/Graphics/SVG/1.1/DTD/svg11.dtd">
<svg version="1.1" id="Layer_1" xmlns="http://www.w3.org/2000/svg" xmlns:xlink="http://www.w3.org/1999/xlink" x="0px" y="0px"
	 width="133.771px" height="109.498px" viewBox="0 0 133.771 109.498" enable-background="new 0 0 133.771 109.498"
	 xml:space="preserve">
<g transform="translate(-1798.669 -22.654)">
	<g transform="translate(1855.88 62.699)">
		<g>
			<path fill="#FFFFFF" d="M14.829,0.069c1.487-0.328,2.959,0.612,3.287,2.1c0.002,0.007,0.004,0.015,0.005,0.023l5.067,23.461
				c0.328,1.488-0.612,2.96-2.1,3.287c-0.008,0.002-0.016,0.004-0.023,0.006L8.429,31.673c-1.487,0.328-2.959-0.611-3.287-2.098
				c-0.002-0.008-0.004-0.017-0.005-0.025L0.071,6.088c-0.328-1.487,0.612-2.959,2.1-3.287c0.008-0.001,0.015-0.003,0.022-0.005
				L14.829,0.069z M19.36,21.05l-3.8-17.6c-0.079-0.373-0.445-0.611-0.818-0.532c-0.002,0-0.003,0-0.005,0.001L3.457,5.355
				c-0.372,0.078-0.61,0.444-0.532,0.816c0.001,0.002,0.001,0.005,0.002,0.007l3.8,17.6c0.079,0.373,0.446,0.609,0.818,0.531
				c0.002-0.001,0.003-0.002,0.005-0.002l11.279-2.435c0.373-0.078,0.611-0.444,0.533-0.815
				C19.361,21.055,19.361,21.052,19.36,21.05z M14.36,28.505c1.014-0.204,1.669-1.191,1.465-2.205s-1.191-1.67-2.205-1.465
				s-1.669,1.191-1.465,2.205c0.1,0.496,0.396,0.93,0.82,1.203c0.404,0.273,0.902,0.368,1.379,0.264L14.36,28.505z"/>
		</g>
	</g>
	<g>
		<rect x="1798.669" y="22.654" fill="#FFFFFF" width="1" height="109.498"/>
	</g>
	<g transform="translate(1841.671 34.901)">
		<g>
			<path fill="#FFFFFF" d="M45.384,90.768C20.319,90.768,0,70.449,0,45.384C0,20.319,20.319,0,45.384,0
				c25.064,0,45.384,20.319,45.384,45.384C90.739,70.438,70.437,90.739,45.384,90.768z M45.384,7.643
				c-20.844,0-37.74,16.896-37.74,37.74c0,20.844,16.896,37.74,37.74,37.74c20.843,0,37.739-16.896,37.739-37.74
				C83.099,24.55,66.216,7.669,45.384,7.643L45.384,7.643z"/>
		</g>
	</g>
	<g enable-background="new    ">
		<g>
			<path fill="#FFFFFF" d="M1919.232,71.178c0.477,0.119,0.846,0.396,1.107,0.831c0.261,0.435,0.332,0.89,0.213,1.366l-4.385,17.586
				c-0.119,0.477-0.396,0.847-0.83,1.107s-0.891,0.332-1.367,0.213l-31.655-7.893c-0.477-0.118-0.845-0.396-1.106-0.829
				c-0.262-0.435-0.333-0.892-0.214-1.368l4.385-17.586c0.118-0.477,0.396-0.845,0.831-1.106c0.435-0.262,0.89-0.332,1.366-0.214
				L1919.232,71.178z M1883.852,81.971l3.517,0.877c0.247-0.989,0.116-1.908-0.393-2.755c-0.51-0.846-1.258-1.394-2.247-1.64
				L1883.852,81.971z M1886.922,69.661c0.989,0.246,1.907,0.115,2.754-0.394s1.394-1.258,1.64-2.247l-3.517-0.877L1886.922,69.661z
				 M1899.459,83.06c1.209,0.302,2.371,0.047,3.488-0.765s1.857-1.949,2.224-3.415c0.365-1.466,0.245-2.818-0.36-4.06
				c-0.604-1.241-1.512-2.012-2.721-2.313c-1.21-0.301-2.373-0.047-3.489,0.766c-1.116,0.812-1.858,1.949-2.224,3.415
				s-0.245,2.818,0.359,4.06C1897.342,81.988,1898.249,82.759,1899.459,83.06z M1913.749,89.425l0.877-3.518
				c-0.989-0.247-1.907-0.115-2.754,0.393c-0.847,0.509-1.394,1.259-1.64,2.248L1913.749,89.425z M1916.818,77.115l0.877-3.518
				l-3.517-0.877c-0.247,0.989-0.116,1.907,0.393,2.754C1915.081,76.322,1915.829,76.868,1916.818,77.115z"/>
		</g>
	</g>
</g>
</svg>
