<svg xmlns="http://www.w3.org/2000/svg" width="218" height="228.715" viewBox="0 0 218 228.715"><g transform="translate(-411 -497)"><rect width="218" height="218" rx="13" transform="translate(411 497)" fill="#dc3546"/><g transform="translate(468.2 526.201)"><path d="M148.086,214.964c-.152-.405-6.4-6.308-10.19-9.864a9.016,9.016,0,0,1-2.847-6.575v-3.554a9.017,9.017,0,0,1,1.82-5.432h0c2.382-3.156,6.091-3.421,9.811-2.078l7.18,4.519-.167,4.049,3.675,12.2-.616,5.278Z" transform="translate(-128.572 -149.046)" fill="#ecae81"/><path d="M144.383,244.984c-.152-.4-6.4-6.308-10.19-9.863a9.018,9.018,0,0,1-2.847-6.576v-3.554a9.016,9.016,0,0,1,1.82-5.432h0c2.382-3.156,6.091-3.422,9.811-2.078l7.18,4.519-.167,4.049,3.675,12.2-.616,5.278Z" transform="translate(-127.211 -160.081)" fill="#ecae81"/><path d="M242.895,236.108a27.913,27.913,0,0,0-10.068-19.724l-13.85-11.452a3.211,3.211,0,0,0-5.258,2.475h0a33.177,33.177,0,0,0,5.976,19l1.015,1.453a14.553,14.553,0,0,1,2.622,8.333v6.1a6.271,6.271,0,0,1-.144,1.314c-.07-.7-13.826-18.622-13.826-18.622l-6.4,10.487s-.958,13.425-1.222,17.406l-41.551,11.07s-1.393-1.389-4.135,1.967l-1.764,17.479,3.732,12.631a25.79,25.79,0,0,0,6.923,11.345l6.452,6.16a17.441,17.441,0,0,1,5.4,12.615V354.1a94.9,94.9,0,0,0,12.987.89,93.776,93.776,0,0,0,35.531-6.943V318.681l16.026-52.842a54.371,54.371,0,0,0,2.229-19.267Z" transform="translate(-135.645 -155.477)" fill="#ecae81"/><rect width="57.678" height="118.306" rx="8.141" transform="translate(20.409 0)" fill="#191818"/><rect width="48.939" height="98.247" rx="1.231" transform="translate(24.779 4.37)" fill="#378f7e"/><path d="M150.515,310.387h-6.554l-14.587-14.109a10.446,10.446,0,0,1-3.184-7.507v-.6a10.445,10.445,0,0,1,9.5-10.4l1.585-.143,4.934,14.695s8.049,3.8,7.72,4.806S150.515,310.387,150.515,310.387Z" transform="translate(-125.316 -182.473)" fill="#ecae81"/><path d="M137.845,274.79c-.152-.405-6.4-6.308-10.19-9.864a9.017,9.017,0,0,1-2.847-6.575V254.8a9.02,9.02,0,0,1,1.82-5.432h0a9.017,9.017,0,0,1,10.262-3.049l1.763.637,4.8,8.9,3.674,12.2-.616,5.278Z" transform="translate(-124.808 -170.765)" fill="#ecae81"/><g transform="translate(24.779 4.37)"><path d="M181.682,134.074l-17.693,17.693v3.739l21.432-21.432Z" transform="translate(-163.989 -134.074)" fill="#bce7fb"/><path d="M191.635,134.074,163.989,161.72v3.739l31.384-31.385Z" transform="translate(-163.989 -134.074)" fill="#bce7fb"/><path d="M200.385,134.074l-36.4,36.4v6.142l42.538-42.539Z" transform="translate(-163.989 -134.074)" fill="#bce7fb"/></g><g transform="translate(2.544 37.648)"><path d="M144.43,237.492l-9.331-5.957a8.084,8.084,0,0,1-2.464-11.163h0a8.084,8.084,0,0,1,11.164-2.464l9.331,5.957a8.084,8.084,0,0,1,2.464,11.164h0A8.084,8.084,0,0,1,144.43,237.492Z" transform="translate(-129.762 -197.7)" fill="#ecae81"/><path d="M141.9,267.434l-9.331-5.957a8.085,8.085,0,0,1-2.465-11.164h0a8.084,8.084,0,0,1,11.164-2.464l9.331,5.957a8.084,8.084,0,0,1,2.464,11.164h0A8.084,8.084,0,0,1,141.9,267.434Z" transform="translate(-128.831 -208.707)" fill="#ecae81"/><path d="M146.616,297.229l-11.834-7.555a6.6,6.6,0,0,1-2.011-9.113h0a6.6,6.6,0,0,1,9.113-2.012l11.834,7.555a6.6,6.6,0,0,1,2.011,9.113h0A6.6,6.6,0,0,1,146.616,297.229Z" transform="translate(-129.898 -220.077)" fill="#ecae81"/><path d="M148.115,207.55l-9.331-5.957a8.084,8.084,0,0,1-2.464-11.163h0a8.084,8.084,0,0,1,11.164-2.465l9.331,5.957a8.085,8.085,0,0,1,2.465,11.164h0A8.084,8.084,0,0,1,148.115,207.55Z" transform="translate(-131.116 -186.695)" fill="#ecae81"/></g><rect width="9.776" height="9.775" rx="4.123" transform="translate(44.361 105.547)" fill="#302f2f"/></g></g></svg>