<svg xmlns="http://www.w3.org/2000/svg" width="217" height="218" viewBox="0 0 217 218"><g transform="translate(-0.307 0.386)"><rect width="217" height="218" rx="13.214" transform="translate(0.307 -0.386)" fill="#212a33"/><g transform="translate(19.312 73.262)"><path d="M414.281-1732.507l-18.84,69.23H381.768l-14.272-45.9-14.272,45.9H339.643l-19.02-69.23h14.814l11.643,43.809,13.611-43.809h13.7l13.853,44.139,11.388-44.139Zm43.522,0v42.741c0,.06.3,5.86-3.44,9.842-2.435,2.585-6.085,3.892-10.862,3.892s-8.43-1.307-10.862-3.892c-3.742-3.981-3.44-9.781-3.44-9.842v-42.741h-6.144l-8.774,32.241v10.021c0,8.532,2.764,15.759,7.99,20.913,5.229,5.136,12.561,7.856,21.23,7.856s16-2.719,21.227-7.856,7.993-12.381,7.993-20.913v-42.262Z" transform="translate(-293.79 1732.507)" fill="#fd0"/><path d="M328.887-1663.277l-19.02-69.23h4.852l19.034,69.23Zm18.284,0-19.019-69.23H323.3l19,69.23Z" transform="translate(-309.867 1732.507)" fill="#fff"/></g></g></svg>